<svg xmlns="http://www.w3.org/2000/svg" viewBox="0 0 512 512" width="512" height="512"><defs><linearGradient id="bg" x1="0" y1="0" x2="1" y2="1"><stop offset="0" stop-color="#7d88ff"/><stop offset="1" stop-color="#3f48d6"/></linearGradient><linearGradient id="coin" x1="0" y1="0" x2="0" y2="1"><stop offset="0" stop-color="#ffe390"/><stop offset="1" stop-color="#f5b21f"/></linearGradient></defs><rect width="512" height="512" rx="112" fill="url(#bg)"/>  <ellipse cx="256" cy="452" rx="118" ry="16" fill="#1d2380" opacity=".28"/>
  <path d="M256 196 L376 265 L256 334 L136 265 Z" fill="#ffffff"/>
  <path d="M136 265 L256 334 L256 446 L136 377 Z" fill="#dfe3ff"/>
  <path d="M256 334 L376 265 L376 377 L256 446 Z" fill="#b5bcff"/>
  <g stroke="#5a66f0" stroke-opacity=".35" stroke-width="4" stroke-linecap="round" fill="none">
    <path d="M136 321 L256 390"/><path d="M196 299.5 L196 411.5"/>
    <path d="M256 390 L376 321"/><path d="M316 299.5 L316 411.5"/>
  </g>
  <path d="M220 244 L292 285.5" stroke="#3a43c9" stroke-width="15" stroke-linecap="round"/>
  <g transform="translate(256 128) rotate(-12)">
    <circle r="64" fill="#c98a12" transform="translate(0 6)"/>
    <circle r="64" fill="url(#coin)"/>
    <circle r="49" fill="none" stroke="#e39b14" stroke-width="5" opacity=".75"/>
    <text y="23" text-anchor="middle" font-family="Arial, Helvetica, sans-serif" font-weight="800" font-size="66" fill="#b06e08">₪</text>
  </g></svg>
